<svg xmlns="http://www.w3.org/2000/svg" width="320" height="320" viewBox="0 0 320 320" role="img" aria-label="Space Invaders game preview">
  <rect width="320" height="320" fill="#0a0a0a"/>
  <rect x="0.5" y="0.5" width="319" height="319" fill="none" stroke="#22c55e" stroke-width="1" stroke-opacity="0.45"/>
  <!-- invader rows (4 rows × 8 cols) — row 0 & 2 accent, row 1 & 3 primary -->
  <!-- row 0 -->
  <g>
    <g fill="#22c55e">
      <rect x="33" y="39" width="16" height="8"/><rect x="34" y="36" width="3" height="4"/><rect x="45" y="36" width="3" height="4"/><rect x="30" y="45" width="4" height="3"/><rect x="48" y="45" width="4" height="3"/>
    </g>
    <g fill="#22c55e">
      <rect x="65" y="39" width="16" height="8"/><rect x="66" y="36" width="3" height="4"/><rect x="77" y="36" width="3" height="4"/><rect x="62" y="45" width="4" height="3"/><rect x="80" y="45" width="4" height="3"/>
    </g>
    <g fill="#22c55e">
      <rect x="97" y="39" width="16" height="8"/><rect x="98" y="36" width="3" height="4"/><rect x="109" y="36" width="3" height="4"/><rect x="94" y="45" width="4" height="3"/><rect x="112" y="45" width="4" height="3"/>
    </g>
    <g fill="#22c55e">
      <rect x="129" y="39" width="16" height="8"/><rect x="130" y="36" width="3" height="4"/><rect x="141" y="36" width="3" height="4"/><rect x="126" y="45" width="4" height="3"/><rect x="144" y="45" width="4" height="3"/>
    </g>
    <g fill="#22c55e">
      <rect x="161" y="39" width="16" height="8"/><rect x="162" y="36" width="3" height="4"/><rect x="173" y="36" width="3" height="4"/><rect x="158" y="45" width="4" height="3"/><rect x="176" y="45" width="4" height="3"/>
    </g>
    <g fill="#22c55e">
      <rect x="193" y="39" width="16" height="8"/><rect x="194" y="36" width="3" height="4"/><rect x="205" y="36" width="3" height="4"/><rect x="190" y="45" width="4" height="3"/><rect x="208" y="45" width="4" height="3"/>
    </g>
    <g fill="#22c55e">
      <rect x="225" y="39" width="16" height="8"/><rect x="226" y="36" width="3" height="4"/><rect x="237" y="36" width="3" height="4"/><rect x="222" y="45" width="4" height="3"/><rect x="240" y="45" width="4" height="3"/>
    </g>
    <g fill="#22c55e">
      <rect x="257" y="39" width="16" height="8"/><rect x="258" y="36" width="3" height="4"/><rect x="269" y="36" width="3" height="4"/><rect x="254" y="45" width="4" height="3"/><rect x="272" y="45" width="4" height="3"/>
    </g>
  </g>
  <!-- row 1 (primary, with one killed mid-row) -->
  <g fill="#ffffff">
    <rect x="33" y="61" width="16" height="8"/><rect x="65" y="61" width="16" height="8"/><rect x="97" y="61" width="16" height="8"/><rect x="161" y="61" width="16" height="8"/><rect x="193" y="61" width="16" height="8"/><rect x="225" y="61" width="16" height="8"/><rect x="257" y="61" width="16" height="8"/>
  </g>
  <!-- row 2 (accent) -->
  <g fill="#22c55e">
    <rect x="33" y="83" width="16" height="8"/><rect x="65" y="83" width="16" height="8"/><rect x="97" y="83" width="16" height="8"/><rect x="129" y="83" width="16" height="8"/><rect x="161" y="83" width="16" height="8"/><rect x="193" y="83" width="16" height="8"/><rect x="225" y="83" width="16" height="8"/><rect x="257" y="83" width="16" height="8"/>
  </g>
  <!-- row 3 (primary, sparse) -->
  <g fill="#ffffff">
    <rect x="33" y="105" width="16" height="8"/><rect x="65" y="105" width="16" height="8"/><rect x="129" y="105" width="16" height="8"/><rect x="193" y="105" width="16" height="8"/><rect x="225" y="105" width="16" height="8"/>
  </g>
  <!-- player bullet -->
  <rect x="158" y="240" width="3" height="10" fill="#22c55e"/>
  <!-- enemy bullet -->
  <rect x="195" y="180" width="3" height="10" fill="#ef4444"/>
  <!-- player ship -->
  <rect x="148" y="300" width="20" height="8" fill="#ffffff"/>
  <rect x="144" y="304" width="28" height="8" fill="#ffffff"/>
  <rect x="156" y="295" width="4" height="6" fill="#ffffff"/>
  <!-- hud -->
  <text x="8" y="20" font-family="ui-monospace, monospace" font-size="12" fill="#ffffff">12</text>
  <text x="160" y="20" text-anchor="middle" font-family="ui-monospace, monospace" font-size="12" fill="#ffffff">WAVE 1</text>
</svg>
